<svg width="1134" height="1134" viewBox="0 0 1134 1134" fill="none" xmlns="http://www.w3.org/2000/svg">
<rect width="1133.86" height="1133.86" fill="white"/>
<path d="M985.835 600.517L962.607 571.437L935.067 537L934.529 537.652L892.169 590.625L869.667 618.799L869.155 619.451L869.129 619.479L846.601 647.652L832.023 629.399L808.767 600.319L765.922 653.944L743.394 682.117L690.363 748.468H821.109L831.295 735.741L874.141 682.117L896.669 653.944L896.695 653.916L919.923 682.996L934.502 701.248L972.254 748.468H1103C1080.34 719.813 1029.92 656.048 1000.44 618.771L985.835 600.517Z" fill="black"/>
<path d="M831.295 572.379L854.523 601.459L854.55 601.431L855.09 600.779L877.59 572.605L919.923 519.632L920.462 518.98L942.99 490.808L957.569 509.06L985.107 543.525L1078.78 426.327L1091.84 409.945L1103 396H972.254L919.735 461.728L897.234 489.872L896.695 490.552L824.209 399.883L821.11 396H690.363L831.322 572.351L831.295 572.379Z" fill="black"/>
<path d="M530.305 657.748V617.813H750.839V526.86H530.305V486.953H750.407L677.704 396H443.807L443.833 748.701H677.704L750.407 657.748H530.305Z" fill="black"/>
<path d="M321.67 645.173L175.396 549.907V662.272L308.634 749.041H434.921V748.7H434.928V396H321.67V645.173Z" fill="black"/>
<path d="M153.257 499.868L299.532 595.135V482.769L166.293 396H40.0066V396.341H40V749.041H153.257L153.257 499.868Z" fill="black"/>
</svg>
